<svg xmlns="http://www.w3.org/2000/svg" xmlns:xlink="http://www.w3.org/1999/xlink" width="200" zoomAndPan="magnify" viewBox="0 0 150 149.999998" height="200" preserveAspectRatio="xMidYMid meet" version="1.0"><defs><clipPath id="08b657e713"><path d="M 6.453125 37 L 126 37 L 126 114.589844 L 6.453125 114.589844 Z M 6.453125 37 " clip-rule="nonzero"/></clipPath><clipPath id="67a7048136"><path d="M 6.453125 35.089844 L 127.203125 35.089844 L 127.203125 114.589844 L 6.453125 114.589844 Z M 6.453125 35.089844 " clip-rule="nonzero"/></clipPath><clipPath id="5022d5fac0"><path d="M 6.453125 37 L 126 37 L 126 114.589844 L 6.453125 114.589844 Z M 6.453125 37 " clip-rule="nonzero"/></clipPath><clipPath id="306b55d739"><path d="M 71 109 L 101 109 L 101 114.589844 L 71 114.589844 Z M 71 109 " clip-rule="nonzero"/></clipPath><clipPath id="d084883d26"><path d="M 6.453125 43 L 60 43 L 60 114.589844 L 6.453125 114.589844 Z M 6.453125 43 " clip-rule="nonzero"/></clipPath><clipPath id="3ba456ba3c"><path d="M 112 112 L 122 112 L 122 114.589844 L 112 114.589844 Z M 112 112 " clip-rule="nonzero"/></clipPath></defs><g clip-path="url(#08b657e713)"><path fill="#ffffff" d="M 125.28125 114.585938 L 6.460938 114.585938 L 6.460938 38.503906 C 8.40625 37.554688 10.574219 37.015625 12.867188 37.015625 C 21.136719 37.015625 27.851562 44.007812 27.851562 52.632812 C 27.851562 55.308594 27.203125 57.820312 26.070312 60.015625 C 30.109375 61.5 33.070312 66.238281 33.070312 71.847656 C 33.070312 78.652344 28.726562 84.160156 23.375 84.160156 C 22.179688 84.160156 21.03125 83.886719 19.976562 83.382812 C 20.804688 84.4375 22.242188 85.699219 22.242188 87.683594 C 22.242188 89.671875 19.710938 91.90625 17.453125 92.898438 C 21.285156 93.25 22.929688 95.390625 22.179688 99 C 32.125 94.410156 43.46875 98.191406 45.234375 106.308594 C 46.402344 105.933594 49.832031 101.386719 53.21875 102.050781 C 56.609375 102.722656 57.796875 105.828125 59.511719 107.480469 C 63.710938 104.429688 68.949219 97.195312 83.976562 97.496094 C 97.5625 97.769531 107.351562 105.515625 111.269531 109.609375 C 112.59375 109.085938 114.097656 108.78125 115.683594 108.78125 C 120.234375 108.78125 124.070312 111.234375 125.28125 114.585938 Z M 125.28125 114.585938 " fill-opacity="1" fill-rule="evenodd"/></g><g clip-path="url(#67a7048136)"><path fill="#231f20" d="M 6.460938 114.585938 L 6.460938 36.386719 C 8.75 35.269531 10.339844 35.089844 12.867188 35.089844 C 22.195312 35.089844 29.78125 42.960938 29.78125 52.632812 C 29.78125 54.851562 29.371094 57.058594 28.585938 59.109375 C 30.21875 60.113281 31.65625 61.585938 32.742188 63.394531 C 34.21875 65.851562 35.003906 68.777344 35.003906 71.847656 C 35.003906 75.566406 33.847656 79.082031 31.75 81.742188 C 29.675781 84.371094 26.925781 85.890625 23.949219 86.066406 C 24.089844 86.5625 24.175781 87.097656 24.175781 87.683594 C 24.175781 89.433594 23.113281 91.046875 21.757812 92.316406 C 22.292969 92.683594 22.75 93.121094 23.128906 93.632812 C 23.675781 94.371094 24.03125 95.214844 24.191406 96.160156 C 26.4375 95.457031 28.769531 95.089844 31.070312 95.089844 C 34.847656 95.089844 38.488281 96.085938 41.324219 97.894531 C 43.492188 99.277344 45.128906 101.058594 46.15625 103.128906 C 47.769531 101.746094 49.996094 100.058594 52.53125 100.058594 C 52.890625 100.058594 53.246094 100.089844 53.59375 100.160156 C 56.738281 100.78125 58.417969 103.007812 59.648438 104.628906 C 59.691406 104.6875 59.734375 104.746094 59.777344 104.804688 C 60.019531 104.59375 60.277344 104.378906 60.542969 104.148438 C 64.515625 100.726562 70.523438 95.558594 83.070312 95.558594 C 83.382812 95.558594 83.695312 95.5625 84.015625 95.570312 C 98.28125 95.855469 108.09375 103.820312 111.792969 107.398438 C 113.042969 107.042969 114.367188 106.855469 115.683594 106.855469 C 120.984375 106.855469 125.570312 109.699219 127.097656 113.929688 L 127.195312 114.582031 L 6.460938 114.582031 Z M 6.460938 114.585938 " fill-opacity="1" fill-rule="nonzero"/></g><g clip-path="url(#5022d5fac0)"><path fill="#ffffff" d="M 125.28125 114.585938 L 6.460938 114.585938 L 6.460938 38.503906 C 8.40625 37.554688 10.574219 37.015625 12.867188 37.015625 C 21.136719 37.015625 27.851562 44.007812 27.851562 52.632812 C 27.851562 55.308594 27.203125 57.820312 26.070312 60.015625 C 30.109375 61.5 33.070312 66.238281 33.070312 71.847656 C 33.070312 78.652344 28.726562 84.160156 23.375 84.160156 C 22.179688 84.160156 21.03125 83.886719 19.976562 83.382812 C 20.804688 84.4375 22.242188 85.699219 22.242188 87.683594 C 22.242188 89.671875 19.710938 91.90625 17.453125 92.898438 C 21.285156 93.25 22.929688 95.390625 22.179688 99 C 32.125 94.410156 43.46875 98.191406 45.234375 106.308594 C 46.402344 105.933594 49.832031 101.386719 53.21875 102.050781 C 56.609375 102.722656 57.796875 105.828125 59.511719 107.480469 C 63.710938 104.429688 68.949219 97.195312 83.976562 97.496094 C 97.5625 97.769531 107.351562 105.515625 111.269531 109.609375 C 112.59375 109.085938 114.097656 108.78125 115.683594 108.78125 C 120.234375 108.78125 124.070312 111.234375 125.28125 114.585938 Z M 125.28125 114.585938 " fill-opacity="1" fill-rule="nonzero"/></g><g clip-path="url(#306b55d739)"><path fill="#e0e0e0" d="M 100.457031 114.585938 L 71.707031 114.585938 C 74.175781 111.332031 79.683594 109.070312 86.082031 109.070312 C 92.480469 109.070312 97.988281 111.332031 100.457031 114.585938 Z M 100.457031 114.585938 " fill-opacity="1" fill-rule="evenodd"/></g><g clip-path="url(#d084883d26)"><path fill="#e0e0e0" d="M 59.449219 114.585938 L 6.460938 114.585938 L 6.460938 43.433594 C 7.261719 43.167969 8.097656 43.023438 8.960938 43.023438 C 14.617188 43.023438 19.207031 49.097656 19.207031 56.585938 C 19.207031 60.613281 17.878906 64.226562 15.773438 66.710938 C 17.339844 68.582031 18.292969 71.0625 18.292969 73.777344 C 18.292969 79.210938 14.484375 83.6875 9.585938 84.265625 C 10.328125 85.441406 10.78125 86.996094 10.78125 88.703125 C 10.78125 91.316406 9.71875 93.574219 8.175781 94.660156 C 10.183594 95.15625 11.691406 97.253906 11.691406 99.765625 C 11.691406 100.097656 11.664062 100.421875 11.613281 100.738281 C 12.433594 100.550781 13.289062 100.445312 14.167969 100.445312 C 19.414062 100.445312 23.828125 103.996094 25.132812 108.816406 C 26.351562 107.648438 28.113281 106.914062 30.074219 106.914062 C 33.085938 106.914062 35.625 108.640625 36.453125 111.011719 C 37.878906 110.578125 39.726562 110.320312 41.746094 110.320312 C 45.710938 110.320312 49.019531 111.324219 49.777344 112.660156 C 50.835938 112.046875 52.179688 111.679688 53.640625 111.679688 C 56.296875 111.679688 58.5625 112.886719 59.449219 114.585938 Z M 59.449219 114.585938 " fill-opacity="1" fill-rule="evenodd"/></g><g clip-path="url(#3ba456ba3c)"><path fill="#e0e0e0" d="M 121.746094 114.585938 L 112.230469 114.585938 C 113.277344 113.515625 115.019531 112.816406 116.988281 112.816406 C 118.957031 112.816406 120.695312 113.515625 121.746094 114.585938 Z M 121.746094 114.585938 " fill-opacity="1" fill-rule="evenodd"/></g><path fill="#231f20" d="M 24.964844 64.640625 C 25.710938 63.421875 26.015625 61.742188 25.679688 59.992188 C 25.34375 58.246094 24.4375 56.800781 23.285156 55.941406 C 25.175781 56.265625 26.761719 57.722656 27.144531 59.714844 C 27.527344 61.703125 26.597656 63.640625 24.964844 64.640625 Z M 24.964844 64.640625 " fill-opacity="1" fill-rule="nonzero"/><path fill="#231f20" d="M 64.003906 109.570312 C 63.023438 108.527344 61.476562 107.789062 59.699219 107.652344 C 57.917969 107.511719 56.277344 108 55.148438 108.878906 C 55.960938 107.144531 57.789062 106.011719 59.816406 106.171875 C 61.84375 106.328125 63.472656 107.734375 64.003906 109.570312 Z M 64.003906 109.570312 " fill-opacity="1" fill-rule="nonzero"/><path fill="#231f20" d="M 17.1875 96.058594 C 17.667969 95.171875 17.816406 93.980469 17.511719 92.761719 C 17.207031 91.546875 16.515625 90.5625 15.671875 90.003906 C 17.015625 90.160156 18.183594 91.125 18.53125 92.511719 C 18.875 93.894531 18.296875 95.292969 17.183594 96.058594 Z M 17.1875 96.058594 " fill-opacity="1" fill-rule="nonzero"/><path fill="#231f20" d="M 18.15625 86.402344 C 19.039062 85.773438 19.742188 84.695312 20.023438 83.378906 C 20.300781 82.066406 20.097656 80.792969 19.550781 79.859375 C 20.773438 80.640625 21.441406 82.117188 21.125 83.613281 C 20.804688 85.109375 19.589844 86.1875 18.15625 86.402344 Z M 18.15625 86.402344 " fill-opacity="1" fill-rule="nonzero"/></svg>