<svg xmlns="http://www.w3.org/2000/svg" xmlns:xlink="http://www.w3.org/1999/xlink" width="200" zoomAndPan="magnify" viewBox="0 0 150 149.999998" height="200" preserveAspectRatio="xMidYMid meet" version="1.0"><defs><clipPath id="6b65af19ad"><path d="M 11 45 L 143.152344 45 L 143.152344 100 L 11 100 Z M 11 45 " clip-rule="nonzero"/></clipPath><clipPath id="ea4e1a7efa"><path d="M 6.652344 80 L 38 80 L 38 105.503906 L 6.652344 105.503906 Z M 6.652344 80 " clip-rule="nonzero"/></clipPath></defs><g clip-path="url(#6b65af19ad)"><path fill="#000000" d="M 143.078125 70.222656 C 143.03125 61.886719 140.511719 44.730469 126.105469 45.449219 L 25.042969 48.625 C 25.042969 48.625 11.839844 50.558594 11.667969 63.171875 L 11.582031 69.613281 C 11.53125 81.304688 12.644531 94.519531 24.40625 95.082031 C 24.40625 95.082031 24.410156 95.082031 24.410156 95.082031 L 107.488281 99.0625 L 114.816406 99.308594 C 133.28125 99.5625 137.457031 93.707031 139.457031 88.71875 C 141.007812 84.847656 143.125 78.222656 143.078125 70.222656 Z M 143.078125 70.222656 " fill-opacity="1" fill-rule="nonzero"/></g><path fill="#ffffff" d="M 137.742188 70.113281 C 137.558594 60.894531 134.527344 47.425781 122.410156 47.425781 L 26.1875 51.542969 C 26.1875 51.542969 13.636719 53.445312 13.636719 64.796875 L 13.636719 70.589844 C 13.742188 81.109375 14.976562 92.984375 26.1875 93.34375 C 26.1875 93.34375 26.1875 93.34375 26.191406 93.34375 L 114.15625 96.167969 C 118.304688 96.226562 130.808594 95.390625 134.445312 87.585938 C 136.113281 84 137.894531 77.652344 137.742188 70.113281 Z M 137.742188 70.113281 " fill-opacity="1" fill-rule="nonzero"/><path fill="#ffffff" d="M 37.21875 87.230469 L 9.085938 103.019531 L 21.113281 80.316406 Z M 37.21875 87.230469 " fill-opacity="1" fill-rule="nonzero"/><g clip-path="url(#ea4e1a7efa)"><path fill="#000000" d="M 8.234375 102.5625 L 9.761719 99.738281 L 11.308594 96.921875 L 12.089844 95.523438 L 12.875 94.121094 L 13.667969 92.722656 L 14.46875 91.328125 L 15.269531 89.9375 L 16.078125 88.550781 L 16.894531 87.164062 L 17.71875 85.785156 C 17.992188 85.324219 18.273438 84.867188 18.550781 84.410156 L 19.390625 83.039062 C 19.671875 82.582031 19.957031 82.125 20.242188 81.671875 C 20.53125 81.21875 20.816406 80.765625 21.113281 80.316406 C 20.90625 80.8125 20.6875 81.304688 20.476562 81.796875 C 20.261719 82.289062 20.042969 82.78125 19.824219 83.269531 L 19.164062 84.738281 C 18.941406 85.226562 18.71875 85.714844 18.492188 86.199219 L 17.808594 87.65625 L 17.125 89.109375 L 16.429688 90.558594 L 15.730469 92.007812 L 15.023438 93.449219 L 14.3125 94.890625 L 13.59375 96.328125 L 12.875 97.761719 L 11.4375 100.574219 C 11.667969 100.445312 11.898438 100.320312 12.128906 100.191406 L 13.890625 99.210938 C 14.476562 98.882812 15.066406 98.5625 15.65625 98.238281 L 17.425781 97.269531 L 19.199219 96.3125 C 19.789062 95.988281 20.382812 95.675781 20.976562 95.359375 C 21.570312 95.042969 22.160156 94.722656 22.757812 94.414062 L 24.542969 93.476562 L 26.335938 92.550781 C 26.933594 92.238281 27.535156 91.9375 28.132812 91.632812 C 28.730469 91.324219 29.332031 91.027344 29.933594 90.726562 C 30.535156 90.421875 31.140625 90.125 31.742188 89.828125 L 33.558594 88.945312 C 34.164062 88.652344 34.773438 88.363281 35.382812 88.074219 C 35.996094 87.792969 36.601562 87.503906 37.21875 87.230469 C 36.664062 87.613281 36.101562 87.984375 35.539062 88.359375 C 34.976562 88.730469 34.414062 89.097656 33.847656 89.464844 L 32.144531 90.554688 C 31.574219 90.914062 31.007812 91.273438 30.4375 91.628906 C 29.867188 91.984375 29.296875 92.34375 28.722656 92.695312 C 28.148438 93.046875 27.578125 93.40625 27.003906 93.75 L 25.277344 94.800781 L 23.546875 95.835938 C 22.96875 96.183594 22.390625 96.523438 21.8125 96.863281 C 21.230469 97.207031 20.65625 97.550781 20.074219 97.886719 L 18.328125 98.902344 L 16.582031 99.90625 C 15.996094 100.242188 15.417969 100.578125 14.832031 100.90625 L 13.074219 101.898438 C 12.492188 102.230469 11.90625 102.5625 11.316406 102.886719 L 9.554688 103.867188 L 6.652344 105.484375 Z M 8.234375 102.5625 " fill-opacity="1" fill-rule="nonzero"/></g></svg>